<svg width="20" height="20" viewBox="0 0 20 20" fill="none" xmlns="http://www.w3.org/2000/svg">
<path d="M17.4086 8.58613C17.514 7.87954 17.4794 7.15617 17.305 6.46063C17.0746 5.54179 16.6001 4.67163 15.8816 3.95308C15.163 3.23455 14.2929 2.76008 13.3741 2.52969C12.6785 2.35528 11.9551 2.32074 11.2485 2.42606" stroke="#07689F" stroke-linecap="round" stroke-linejoin="round"/>
<path d="M14.2454 8.25144C14.3583 7.49452 14.1233 6.69577 13.5407 6.11311C12.958 5.53044 12.1592 5.29548 11.4023 5.40831" stroke="#07689F" stroke-linecap="round" stroke-linejoin="round"/>
<path d="M5.98962 3.66431C6.29237 3.66431 6.57129 3.82848 6.71821 4.09316L7.73758 5.92934C7.87104 6.16975 7.87729 6.46054 7.75433 6.7065L6.77233 8.6705C6.77233 8.6705 7.05691 10.1336 8.24791 11.3246C9.43891 12.5156 10.8971 12.7953 10.8971 12.7953L12.8608 11.8135C13.107 11.6904 13.398 11.6968 13.6385 11.8305L15.4798 12.8542C15.7442 13.0012 15.9082 13.28 15.9082 13.5825V15.6965C15.9082 16.773 14.9083 17.5506 13.8882 17.2064C11.7933 16.4995 8.54133 15.1536 6.48016 13.0924C4.41896 11.0312 3.07304 7.77925 2.36615 5.68429C2.02197 4.66425 2.79951 3.66431 3.87603 3.66431H5.98962Z" stroke="#07689F" stroke-linejoin="round"/>
</svg>
