<svg width="20" height="20" viewBox="0 0 20 20" fill="none" xmlns="http://www.w3.org/2000/svg">
<g clip-path="url(#clip0_101_5719)">
<path d="M9.99984 18.3334C12.301 18.3334 14.3843 17.4007 15.8924 15.8926C17.4004 14.3846 18.3332 12.3012 18.3332 10.0001C18.3332 7.69892 17.4004 5.61558 15.8924 4.10752C14.3843 2.59949 12.301 1.66675 9.99984 1.66675C7.69867 1.66675 5.61534 2.59949 4.10728 4.10752C2.59925 5.61558 1.6665 7.69892 1.6665 10.0001C1.6665 12.3012 2.59925 14.3846 4.10728 15.8926C5.61534 17.4007 7.69867 18.3334 9.99984 18.3334Z" stroke="#043E5F" stroke-width="2" stroke-linejoin="round"/>
<path d="M10 11.9269V10.2603C11.3807 10.2603 12.5 9.14096 12.5 7.76025C12.5 6.37955 11.3807 5.26025 10 5.26025C8.61929 5.26025 7.5 6.37955 7.5 7.76025" stroke="#043E5F" stroke-width="2" stroke-linecap="round" stroke-linejoin="round"/>
<path fill-rule="evenodd" clip-rule="evenodd" d="M10.0002 15.6771C10.5755 15.6771 11.0418 15.2107 11.0418 14.6354C11.0418 14.0601 10.5755 13.5938 10.0002 13.5938C9.42487 13.5938 8.9585 14.0601 8.9585 14.6354C8.9585 15.2107 9.42487 15.6771 10.0002 15.6771Z" fill="#043E5F"/>
</g>
<defs>
<clipPath id="clip0_101_5719">
<rect width="20" height="20" fill="white"/>
</clipPath>
</defs>
</svg>
