<svg width="20" height="20" viewBox="0 0 20 20" fill="none" xmlns="http://www.w3.org/2000/svg">
<path d="M17.4086 8.58609C17.514 7.87951 17.4794 7.15614 17.305 6.46059C17.0746 5.54176 16.6001 4.67159 15.8816 3.95305C15.163 3.23452 14.2929 2.76005 13.3741 2.52966C12.6785 2.35525 11.9551 2.32071 11.2485 2.42603" stroke="#07689F" stroke-linecap="round" stroke-linejoin="round"/>
<path d="M14.2454 8.25144C14.3583 7.49452 14.1233 6.69577 13.5407 6.11311C12.958 5.53044 12.1592 5.29548 11.4023 5.40831" stroke="#07689F" stroke-linecap="round" stroke-linejoin="round"/>
<path d="M5.98962 3.66434C6.29237 3.66434 6.57129 3.82851 6.71821 4.0932L7.73758 5.92937C7.87104 6.16978 7.87729 6.46057 7.75433 6.70653L6.77233 8.67053C6.77233 8.67053 7.05691 10.1337 8.24791 11.3247C9.43891 12.5157 10.8971 12.7953 10.8971 12.7953L12.8608 11.8135C13.107 11.6904 13.398 11.6968 13.6385 11.8305L15.4798 12.8542C15.7442 13.0012 15.9082 13.28 15.9082 13.5826V15.6965C15.9082 16.7731 14.9083 17.5506 13.8882 17.2064C11.7933 16.4995 8.54133 15.1536 6.48016 13.0924C4.41896 11.0312 3.07304 7.77928 2.36615 5.68432C2.02197 4.66428 2.79951 3.66434 3.87603 3.66434H5.98962Z" stroke="#07689F" stroke-linejoin="round"/>
</svg>
