<svg width="16" height="18" viewBox="0 0 16 18" fill="none" xmlns="http://www.w3.org/2000/svg">
<path d="M12.3382 5.68188L12.2985 5.92698C11.7735 8.77513 9.9917 9.75551 7.7088 9.75551H6.54747C6.41304 9.7558 6.28312 9.80702 6.18106 9.89997C6.079 9.99292 6.01149 10.1215 5.99066 10.2626L5.39409 14.2686L5.22704 15.4011C5.22006 15.4462 5.22248 15.4924 5.23411 15.5364C5.24574 15.5804 5.26631 15.6212 5.29436 15.6558C5.32242 15.6905 5.35729 15.7181 5.39651 15.7369C5.43572 15.7557 5.47834 15.7651 5.52136 15.7645H7.58153C7.69965 15.7662 7.81439 15.7227 7.9049 15.6421C7.99541 15.5614 8.05566 15.4489 8.0747 15.325V15.2152L8.45651 12.6037V12.46C8.47382 12.3346 8.53333 12.2201 8.62401 12.1377C8.71469 12.0554 8.83039 12.0107 8.94968 12.0121H9.2599C11.2564 12.0121 12.8155 11.1669 13.2371 8.63146C13.3596 8.20392 13.386 7.7518 13.3142 7.31145C13.2423 6.87109 13.0743 6.45479 12.8235 6.09601C12.6834 5.93145 12.5197 5.79166 12.3382 5.68188Z" fill="#179BD7"/>
<path d="M11.7895 5.4537L11.5429 5.38609L11.2804 5.33538C10.9435 5.28146 10.603 5.25602 10.2623 5.25932H7.16008C7.04215 5.26001 6.92837 5.30558 6.83935 5.38775C6.75033 5.46993 6.69198 5.58328 6.67486 5.70725L6.01465 10.1443V10.2711C6.03547 10.13 6.10299 10.0014 6.20505 9.90842C6.30711 9.81547 6.43703 9.76425 6.57145 9.76397H7.73279C10.0157 9.76397 11.7975 8.78359 12.3225 5.93544C12.3225 5.85092 12.3225 5.76641 12.3622 5.69034C12.2244 5.61285 12.0807 5.54782 11.9327 5.49596L11.7895 5.4537Z" fill="#222D65"/>
<path d="M6.66686 5.69887C6.68398 5.57491 6.74234 5.46156 6.83135 5.37938C6.92037 5.2972 7.03415 5.25164 7.15208 5.25094H10.2543C10.5977 5.2472 10.9408 5.27264 11.2804 5.32701L11.5429 5.37772L11.7895 5.44533H11.9088C12.0568 5.49738 12.2004 5.5624 12.3383 5.63971C12.4389 5.22097 12.443 4.78263 12.3503 4.36185C12.2575 3.94107 12.0706 3.55027 11.8054 3.22258C11.2168 2.51266 10.1509 2.19995 8.79067 2.19995H4.8135C4.67907 2.20024 4.54916 2.25146 4.44709 2.34441C4.34503 2.43736 4.27752 2.56594 4.25669 2.70704L2.6181 13.8546C2.61132 13.9057 2.61485 13.9577 2.62847 14.0072C2.64209 14.0568 2.66548 14.1026 2.69709 14.1418C2.72869 14.181 2.76779 14.2126 2.81177 14.2345C2.85576 14.2563 2.90362 14.268 2.95218 14.2687H5.39417L6.00665 10.1359L6.66686 5.69887Z" fill="#253B80"/>
</svg>
