<svg width="41" height="40" viewBox="0 0 41 40" fill="none" xmlns="http://www.w3.org/2000/svg">
<rect x="41" y="40" width="41" height="40" rx="4" transform="rotate(-180 41 40)" fill="#EFEFEF"/>
<path d="M37.9248 37.7305H36.4709V36.312H37.9248V37.7305ZM36.4709 37.7305H35.017V36.312H36.4709V37.7305ZM35.017 37.7305H33.5631V36.312H35.017V37.7305ZM33.5631 37.7305H32.1092V36.312H33.5631V37.7305ZM32.1092 37.7305H30.6553V36.312H32.1092V37.7305ZM30.6553 37.7305H29.2014V36.312H30.6553V37.7305ZM29.2014 37.7305H27.7475V36.312H29.2014V37.7305ZM21.9319 37.7305H20.478V36.312H21.9319V37.7305ZM17.5702 37.7305H16.1163V36.312H17.5702V37.7305ZM16.1163 37.7305H14.6624V36.312H16.1163V37.7305ZM14.6624 37.7305H13.2085V36.312H14.6624V37.7305ZM11.7546 37.7305H10.3007V36.312H11.7546V37.7305ZM10.3007 37.7305L8.84679 37.7305V36.312H10.3007V37.7305ZM8.84679 37.7305H7.39289V36.312L8.84679 36.312V37.7305ZM7.39289 37.7305H5.93899V36.312H7.39289V37.7305ZM5.93899 37.7305H4.48509V36.312H5.93899V37.7305ZM4.48509 37.7305H3.03119V36.312H4.48509V37.7305ZM3.03119 37.7305H1.57729V36.312H3.03119V37.7305ZM37.9248 36.312H36.4709V34.8936H37.9248V36.312ZM29.2014 36.312H27.7475V34.8936H29.2014V36.312ZM24.8397 36.312H23.3858V34.8936H24.8397V36.312ZM19.0241 36.312H17.5702V34.8936H19.0241V36.312ZM17.5702 36.312H16.1163V34.8936H17.5702V36.312ZM14.6624 36.312H13.2085V34.8936H14.6624V36.312ZM11.7546 36.312H10.3007V34.8936H11.7546V36.312ZM3.03119 36.312H1.57729V34.8936H3.03119V36.312ZM37.9248 34.8936H36.4709V33.4751H37.9248V34.8936ZM35.017 34.8936H33.5631V33.4751H35.017V34.8936ZM33.5631 34.8936H32.1092V33.4751H33.5631V34.8936ZM32.1092 34.8936H30.6553V33.4751H32.1092V34.8936ZM29.2014 34.8936H27.7475V33.4751H29.2014V34.8936ZM24.8397 34.8936H23.3858V33.4751H24.8397V34.8936ZM23.3858 34.8936H21.9319V33.4751H23.3858V34.8936ZM20.478 34.8936H19.0241V33.4751H20.478V34.8936ZM17.5702 34.8936H16.1163V33.4751H17.5702V34.8936ZM16.1163 34.8936H14.6624V33.4751H16.1163V34.8936ZM11.7546 34.8936H10.3007V33.4751H11.7546V34.8936ZM8.84679 34.8936H7.39289V33.4751H8.84679V34.8936ZM7.39289 34.8936L5.93899 34.8936V33.4751H7.39289V34.8936ZM5.93899 34.8936H4.48509V33.4751L5.93899 33.4751V34.8936ZM3.03119 34.8936H1.57729V33.4751H3.03119V34.8936ZM37.9248 33.4751H36.4709V32.0567H37.9248V33.4751ZM35.017 33.4751H33.5631V32.0567H35.017V33.4751ZM33.5631 33.4751H32.1092V32.0567H33.5631V33.4751ZM32.1092 33.4751H30.6553V32.0567H32.1092V33.4751ZM29.2014 33.4751H27.7475V32.0567H29.2014V33.4751ZM26.2936 33.4751H24.8397V32.0567H26.2936V33.4751ZM24.8397 33.4751H23.3858V32.0567H24.8397V33.4751ZM20.478 33.4751H19.0241V32.0567H20.478V33.4751ZM17.5702 33.4751H16.1163V32.0567H17.5702V33.4751ZM16.1163 33.4751H14.6624V32.0567H16.1163V33.4751ZM11.7546 33.4751H10.3007V32.0567H11.7546V33.4751ZM8.84679 33.4751H7.39289V32.0567H8.84679V33.4751ZM7.39289 33.4751H5.93899V32.0567H7.39289V33.4751ZM5.93899 33.4751L4.48509 33.4751V32.0567L5.93899 32.0567V33.4751ZM3.03119 33.4751H1.57729V32.0567H3.03119V33.4751ZM37.9248 32.0567H36.4709V30.6383H37.9248V32.0567ZM35.017 32.0567H33.5631V30.6383H35.017V32.0567ZM33.5631 32.0567H32.1092V30.6383H33.5631V32.0567ZM32.1092 32.0567H30.6553V30.6383H32.1092V32.0567ZM29.2014 32.0567H27.7475V30.6383H29.2014V32.0567ZM23.3858 32.0567H21.9319V30.6383H23.3858V32.0567ZM21.9319 32.0567H20.478V30.6383H21.9319V32.0567ZM20.478 32.0567H19.0241V30.6383L20.478 30.6383V32.0567ZM19.0241 32.0567H17.5702V30.6383H19.0241V32.0567ZM17.5702 32.0567H16.1163V30.6383H17.5702V32.0567ZM11.7546 32.0567H10.3007V30.6383H11.7546V32.0567ZM8.84679 32.0567H7.39289V30.6383H8.84679V32.0567ZM7.39289 32.0567H5.93899V30.6383H7.39289V32.0567ZM5.93899 32.0567L4.48509 32.0567V30.6383H5.93899V32.0567ZM3.03119 32.0567H1.57729V30.6383H3.03119V32.0567ZM37.9248 30.6383H36.4709V29.2198H37.9248V30.6383ZM29.2014 30.6383H27.7475V29.2198H29.2014V30.6383ZM26.2936 30.6383H24.8397V29.2198H26.2936V30.6383ZM21.9319 30.6383H20.478V29.2198H21.9319V30.6383ZM14.6624 30.6383H13.2085V29.2198H14.6624V30.6383ZM11.7546 30.6383H10.3007V29.2198H11.7546V30.6383ZM3.03119 30.6383H1.57729V29.2198L3.03119 29.2198V30.6383ZM37.9248 29.2198H36.4709V27.8014H37.9248V29.2198ZM36.4709 29.2198H35.017V27.8014H36.4709V29.2198ZM35.017 29.2198H33.5631V27.8014H35.017V29.2198ZM33.5631 29.2198H32.1092V27.8014H33.5631V29.2198ZM32.1092 29.2198H30.6553V27.8014H32.1092V29.2198ZM30.6553 29.2198H29.2014V27.8014H30.6553V29.2198ZM29.2014 29.2198H27.7475V27.8014H29.2014V29.2198ZM26.2936 29.2198H24.8397V27.8014H26.2936V29.2198ZM23.3858 29.2198H21.9319V27.8014H23.3858V29.2198ZM20.478 29.2198H19.0241V27.8014H20.478V29.2198ZM17.5702 29.2198L16.1163 29.2198V27.8014L17.5702 27.8014V29.2198ZM14.6624 29.2198H13.2085V27.8014H14.6624V29.2198ZM11.7546 29.2198H10.3007V27.8014H11.7546V29.2198ZM10.3007 29.2198H8.84679V27.8014H10.3007V29.2198ZM8.84679 29.2198H7.39289V27.8014H8.84679V29.2198ZM7.39289 29.2198H5.93899V27.8014H7.39289V29.2198ZM5.93899 29.2198H4.48509V27.8014H5.93899V29.2198ZM4.48509 29.2198H3.03119V27.8014H4.48509V29.2198ZM3.03119 29.2198L1.57729 29.2198V27.8014L3.03119 27.8014V29.2198ZM26.2936 27.8014H24.8397V26.383H26.2936V27.8014ZM24.8397 27.8014H23.3858V26.383H24.8397V27.8014ZM23.3858 27.8014H21.9319V26.383H23.3858V27.8014ZM17.5702 27.8014L16.1163 27.8014V26.383L17.5702 26.383V27.8014ZM16.1163 27.8014H14.6624V26.383H16.1163V27.8014ZM14.6624 27.8014H13.2085V26.383H14.6624V27.8014ZM36.4709 26.383H35.017V24.9645H36.4709V26.383ZM35.017 26.383H33.5631V24.9645H35.017V26.383ZM29.2014 26.383H27.7475V24.9645H29.2014V26.383ZM19.0241 26.383H17.5702V24.9645H19.0241V26.383ZM17.5702 26.383L16.1163 26.383V24.9645L17.5702 24.9645V26.383ZM14.6624 26.383H13.2085V24.9645H14.6624V26.383ZM11.7546 26.383H10.3007V24.9645H11.7546V26.383ZM10.3007 26.383H8.84679V24.9645H10.3007V26.383ZM7.39289 26.383H5.93899V24.9645H7.39289V26.383ZM36.4709 24.9645H35.017V23.5461H36.4709V24.9645ZM35.017 24.9645H33.5631V23.5461H35.017V24.9645ZM32.1092 24.9645H30.6553V23.5461H32.1092V24.9645ZM27.7475 24.9645H26.2936V23.5461H27.7475V24.9645ZM23.3858 24.9645H21.9319V23.5461H23.3858V24.9645ZM21.9319 24.9645H20.478V23.5461H21.9319V24.9645ZM20.478 24.9645H19.0241V23.5461H20.478V24.9645ZM19.0241 24.9645H17.5702V23.5461H19.0241V24.9645ZM17.5702 24.9645L16.1163 24.9645V23.5461L17.5702 23.5461V24.9645ZM16.1163 24.9645H14.6624V23.5461H16.1163V24.9645ZM14.6624 24.9645H13.2085V23.5461H14.6624V24.9645ZM11.7546 24.9645H10.3007V23.5461H11.7546V24.9645ZM10.3007 24.9645H8.84679V23.5461H10.3007V24.9645ZM7.39289 24.9645H5.93899V23.5461H7.39289V24.9645ZM4.48509 24.9645H3.03119V23.5461H4.48509V24.9645ZM3.03119 24.9645L1.57729 24.9645V23.5461L3.03119 23.5461V24.9645ZM29.2014 23.5461H27.7475V22.1276H29.2014V23.5461ZM21.9319 23.5461H20.478L20.478 22.1276H21.9319V23.5461ZM16.1163 23.5461H14.6624L14.6624 22.1276H16.1163L16.1163 23.5461ZM13.2085 23.5461H11.7546L11.7546 22.1276H13.2085L13.2085 23.5461ZM10.3007 23.5461H8.84679L8.84679 22.1276H10.3007L10.3007 23.5461ZM7.39289 23.5461H5.93899L5.93899 22.1276H7.39289L7.39289 23.5461ZM5.93899 23.5461H4.48509V22.1276H5.93899L5.93899 23.5461ZM3.03119 23.5461L1.57729 23.5461V22.1276L3.03119 22.1276V23.5461ZM37.9248 22.1276H36.4709V20.7092H37.9248V22.1276ZM36.4709 22.1276H35.017V20.7092H36.4709V22.1276ZM32.1092 22.1276H30.6553V20.7092H32.1092V22.1276ZM27.7475 22.1276H26.2936V20.7092H27.7475V22.1276ZM24.8397 22.1276H23.3858V20.7092L24.8397 20.7092V22.1276ZM23.3858 22.1276H21.9319V20.7092H23.3858V22.1276ZM19.0241 22.1276H17.5702V20.7092H19.0241V22.1276ZM16.1163 22.1276H14.6624V20.7092H16.1163V22.1276ZM13.2085 22.1276H11.7546V20.7092H13.2085V22.1276ZM10.3007 22.1276H8.84679V20.7092H10.3007V22.1276ZM7.39289 22.1276H5.93899V20.7092H7.39289V22.1276ZM37.9248 20.7092H36.4709V19.2908H37.9248V20.7092ZM36.4709 20.7092H35.017V19.2908H36.4709V20.7092ZM33.5631 20.7092H32.1092V19.2908H33.5631V20.7092ZM29.2014 20.7092H27.7475V19.2908H29.2014V20.7092ZM27.7475 20.7092H26.2936V19.2908H27.7475V20.7092ZM26.2936 20.7092H24.8397V19.2908H26.2936V20.7092ZM24.8397 20.7092L23.3858 20.7092V19.2908L24.8397 19.2908V20.7092ZM23.3858 20.7092H21.9319V19.2908H23.3858V20.7092ZM19.0241 20.7092H17.5702V19.2908H19.0241V20.7092ZM16.1163 20.7092H14.6624V19.2908H16.1163V20.7092ZM14.6624 20.7092H13.2085V19.2908H14.6624V20.7092ZM11.7546 20.7092H10.3007V19.2908H11.7546V20.7092ZM10.3007 20.7092H8.84679V19.2908H10.3007V20.7092ZM3.03119 20.7092H1.57729V19.2908H3.03119V20.7092ZM35.017 19.2908H33.5631V17.8723H35.017V19.2908ZM33.5631 19.2908H32.1092V17.8723H33.5631V19.2908ZM32.1092 19.2908H30.6553V17.8723H32.1092V19.2908ZM23.3858 19.2908H21.9319V17.8723H23.3858V19.2908ZM21.9319 19.2908H20.478V17.8723H21.9319V19.2908ZM20.478 19.2908H19.0241V17.8723H20.478V19.2908ZM16.1163 19.2908H14.6624V17.8723H16.1163V19.2908ZM14.6624 19.2908H13.2085V17.8723H14.6624V19.2908ZM11.7546 19.2908H10.3007V17.8723H11.7546V19.2908ZM10.3007 19.2908H8.84679V17.8723H10.3007V19.2908ZM4.48509 19.2908H3.03119V17.8723H4.48509V19.2908ZM3.03119 19.2908H1.57729V17.8723H3.03119V19.2908ZM37.9248 17.8723H36.4709V16.4539H37.9248V17.8723ZM36.4709 17.8723H35.017V16.4539H36.4709V17.8723ZM33.5631 17.8723H32.1092V16.4539H33.5631V17.8723ZM30.6553 17.8723H29.2014V16.4539H30.6553V17.8723ZM29.2014 17.8723H27.7475V16.4539H29.2014V17.8723ZM26.2936 17.8723H24.8397V16.4539H26.2936V17.8723ZM24.8397 17.8723L23.3858 17.8723V16.4539L24.8397 16.4539V17.8723ZM23.3858 17.8723H21.9319V16.4539H23.3858V17.8723ZM20.478 17.8723H19.0241V16.4539H20.478V17.8723ZM16.1163 17.8723H14.6624V16.4539H16.1163V17.8723ZM14.6624 17.8723H13.2085V16.4539H14.6624V17.8723ZM11.7546 17.8723H10.3007V16.4539H11.7546V17.8723ZM7.39289 17.8723H5.93899V16.4539H7.39289V17.8723ZM5.93899 17.8723H4.48509V16.4539H5.93899V17.8723ZM3.03119 17.8723H1.57729V16.4539H3.03119V17.8723ZM35.017 16.4539H33.5631V15.0354H35.017V16.4539ZM33.5631 16.4539H32.1092V15.0354H33.5631V16.4539ZM32.1092 16.4539H30.6553V15.0354H32.1092V16.4539ZM27.7475 16.4539H26.2936L26.2936 15.0354H27.7475L27.7475 16.4539ZM23.3858 16.4539H21.9319L21.9319 15.0354H23.3858L23.3858 16.4539ZM17.5702 16.4539H16.1163V15.0354H17.5702V16.4539ZM16.1163 16.4539H14.6624V15.0354H16.1163V16.4539ZM14.6624 16.4539H13.2085V15.0354H14.6624V16.4539ZM13.2085 16.4539H11.7546V15.0354H13.2085V16.4539ZM11.7546 16.4539H10.3007V15.0354H11.7546V16.4539ZM10.3007 16.4539H8.84679V15.0354H10.3007V16.4539ZM8.84679 16.4539H7.39289V15.0354H8.84679V16.4539ZM7.39289 16.4539H5.93899V15.0354H7.39289V16.4539ZM37.9248 15.0354H36.4709V13.617H37.9248V15.0354ZM36.4709 15.0354H35.017V13.617H36.4709V15.0354ZM35.017 15.0354H33.5631V13.617H35.017V15.0354ZM32.1092 15.0354H30.6553V13.617H32.1092V15.0354ZM29.2014 15.0354H27.7475V13.617H29.2014V15.0354ZM26.2936 15.0354H24.8397V13.617H26.2936V15.0354ZM21.9319 15.0354H20.478V13.617H21.9319V15.0354ZM14.6624 15.0354H13.2085V13.617H14.6624V15.0354ZM13.2085 15.0354H11.7546V13.617H13.2085V15.0354ZM11.7546 15.0354H10.3007V13.617H11.7546V15.0354ZM10.3007 15.0354H8.84679V13.617H10.3007V15.0354ZM8.84679 15.0354H7.39289V13.617H8.84679V15.0354ZM4.48509 15.0354H3.03119V13.617H4.48509V15.0354ZM26.2936 13.617H24.8397V12.1986H26.2936V13.617ZM24.8397 13.617L23.3858 13.617V12.1986L24.8397 12.1986V13.617ZM23.3858 13.617H21.9319V12.1986H23.3858V13.617ZM21.9319 13.617H20.478V12.1986H21.9319V13.617ZM19.0241 13.617H17.5702V12.1986H19.0241V13.617ZM17.5702 13.617H16.1163V12.1986H17.5702V13.617ZM14.6624 13.617H13.2085V12.1986H14.6624V13.617ZM8.84679 13.617H7.39289V12.1986H8.84679V13.617ZM3.03119 13.617H1.57729V12.1986H3.03119V13.617ZM37.9248 12.1986H36.4709V10.7801H37.9248V12.1986ZM36.4709 12.1986H35.017V10.7801H36.4709V12.1986ZM35.017 12.1986H33.5631V10.7801H35.017V12.1986ZM33.5631 12.1986H32.1092V10.7801H33.5631V12.1986ZM32.1092 12.1986H30.6553V10.7801H32.1092V12.1986ZM30.6553 12.1986H29.2014V10.7801H30.6553V12.1986ZM29.2014 12.1986H27.7475V10.7801H29.2014V12.1986ZM23.3858 12.1986H21.9319V10.7801H23.3858V12.1986ZM21.9319 12.1986H20.478V10.7801H21.9319V12.1986ZM17.5702 12.1986H16.1163V10.7801H17.5702V12.1986ZM14.6624 12.1986H13.2085V10.7801H14.6624V12.1986ZM11.7546 12.1986H10.3007V10.7801H11.7546V12.1986ZM8.84679 12.1986H7.39289V10.7801H8.84679V12.1986ZM3.03119 12.1986H1.57729V10.7801H3.03119V12.1986ZM37.9248 10.7801H36.4709V9.36167H37.9248V10.7801ZM29.2014 10.7801H27.7475V9.36167H29.2014V10.7801ZM24.8397 10.7801L23.3858 10.7801V9.36167L24.8397 9.36167V10.7801ZM23.3858 10.7801H21.9319V9.36167H23.3858V10.7801ZM20.478 10.7801H19.0241V9.36167H20.478V10.7801ZM19.0241 10.7801H17.5702V9.36167H19.0241V10.7801ZM14.6624 10.7801H13.2085V9.36167H14.6624V10.7801ZM8.84679 10.7801H7.39289V9.36167H8.84679V10.7801ZM4.48509 10.7801H3.03119V9.36167H4.48509V10.7801ZM37.9248 9.36167H36.4709V7.94323H37.9248L37.9248 9.36167ZM35.017 9.36167H33.5631V7.94323H35.017V9.36167ZM33.5631 9.36167H32.1092V7.94323H33.5631V9.36167ZM32.1092 9.36167H30.6553V7.94323H32.1092V9.36167ZM29.2014 9.36167H27.7475V7.94323H29.2014V9.36167ZM24.8397 9.36167L23.3858 9.36167V7.94323L24.8397 7.94323V9.36167ZM23.3858 9.36167H21.9319V7.94323H23.3858V9.36167ZM17.5702 9.36167H16.1163V7.94323H17.5702V9.36167ZM16.1163 9.36167H14.6624V7.94323H16.1163V9.36167ZM14.6624 9.36167H13.2085V7.94323H14.6624V9.36167ZM13.2085 9.36167H11.7546V7.94323H13.2085V9.36167ZM11.7546 9.36167H10.3007V7.94323H11.7546V9.36167ZM10.3007 9.36167H8.84679V7.94323H10.3007V9.36167ZM8.84679 9.36167H7.39289V7.94323H8.84679V9.36167ZM4.48509 9.36167H3.03119L3.03119 7.94323H4.48509L4.48509 9.36167ZM3.03119 9.36167H1.57729L1.57729 7.94323H3.03119L3.03119 9.36167ZM37.9248 7.94323H36.4709L36.4709 6.52479H37.9248V7.94323ZM35.017 7.94323H33.5631V6.52479H35.017L35.017 7.94323ZM33.5631 7.94323H32.1092V6.52479H33.5631V7.94323ZM32.1092 7.94323H30.6553V6.52479H32.1092V7.94323ZM29.2014 7.94323H27.7475V6.52479H29.2014V7.94323ZM24.8397 7.94323L23.3858 7.94323V6.52479L24.8397 6.52479V7.94323ZM23.3858 7.94323H21.9319V6.52479H23.3858V7.94323ZM21.9319 7.94323H20.478V6.52479H21.9319V7.94323ZM20.478 7.94323H19.0241V6.52479H20.478V7.94323ZM16.1163 7.94323H14.6624V6.52479H16.1163V7.94323ZM13.2085 7.94323H11.7546V6.52479H13.2085V7.94323ZM8.84679 7.94323H7.39289V6.52479H8.84679V7.94323ZM5.93899 7.94323H4.48509V6.52479H5.93899V7.94323ZM4.48509 7.94323H3.03119V6.52479H4.48509V7.94323ZM37.9248 6.52479H36.4709V5.10635H37.9248V6.52479ZM35.017 6.52479H33.5631V5.10635H35.017V6.52479ZM33.5631 6.52479H32.1092V5.10635H33.5631V6.52479ZM32.1092 6.52479H30.6553V5.10635H32.1092V6.52479ZM29.2014 6.52479H27.7475V5.10635H29.2014V6.52479ZM26.2936 6.52479H24.8397V5.10635H26.2936V6.52479ZM19.0241 6.52479H17.5702V5.10635H19.0241V6.52479ZM17.5702 6.52479H16.1163V5.10635H17.5702V6.52479ZM16.1163 6.52479H14.6624V5.10635H16.1163V6.52479ZM14.6624 6.52479H13.2085V5.10635H14.6624V6.52479ZM13.2085 6.52479H11.7546V5.10635H13.2085V6.52479ZM10.3007 6.52479H8.84679V5.10635L10.3007 5.10635V6.52479ZM8.84679 6.52479H7.39289V5.10635H8.84679V6.52479ZM7.39289 6.52479H5.93899V5.10635H7.39289V6.52479ZM4.48509 6.52479H3.03119V5.10635H4.48509V6.52479ZM3.03119 6.52479H1.57729V5.10635H3.03119V6.52479ZM37.9248 5.10635H36.4709V3.68792H37.9248V5.10635ZM29.2014 5.10635H27.7475V3.68792H29.2014V5.10635ZM26.2936 5.10635H24.8397V3.68792H26.2936V5.10635ZM24.8397 5.10635H23.3858V3.68792H24.8397V5.10635ZM23.3858 5.10635H21.9319V3.68792H23.3858V5.10635ZM19.0241 5.10635H17.5702V3.68792H19.0241V5.10635ZM14.6624 5.10635H13.2085V3.68792H14.6624V5.10635ZM13.2085 5.10635H11.7546V3.68792H13.2085V5.10635ZM11.7546 5.10635H10.3007V3.68792H11.7546V5.10635ZM10.3007 5.10635L8.84679 5.10635V3.68792L10.3007 3.68792V5.10635ZM8.84679 5.10635H7.39289V3.68792H8.84679V5.10635ZM37.9248 3.68792H36.4709V2.26947H37.9248V3.68792ZM36.4709 3.68792H35.017V2.26947H36.4709V3.68792ZM35.017 3.68792H33.5631V2.26947H35.017V3.68792ZM33.5631 3.68792H32.1092V2.26947H33.5631V3.68792ZM32.1092 3.68792H30.6553V2.26947H32.1092V3.68792ZM30.6553 3.68792H29.2014V2.26947H30.6553V3.68792ZM29.2014 3.68792H27.7475V2.26947H29.2014V3.68792ZM23.3858 3.68792H21.9319V2.26947H23.3858V3.68792ZM20.478 3.68792H19.0241V2.26947H20.478V3.68792ZM14.6624 3.68792H13.2085V2.26947H14.6624V3.68792ZM11.7546 3.68792H10.3007V2.26947H11.7546V3.68792ZM7.39289 3.68792H5.93899V2.26947H7.39289V3.68792ZM3.03119 3.68792H1.57729V2.26947H3.03119V3.68792Z" fill="black"/>
</svg>
