<svg width="17" height="16" viewBox="0 0 17 16" fill="none" xmlns="http://www.w3.org/2000/svg">
<path d="M10.5002 15.1667H6.50016C2.88016 15.1667 1.3335 13.62 1.3335 10V6.00001C1.3335 2.38001 2.88016 0.833344 6.50016 0.833344H10.5002C14.1202 0.833344 15.6668 2.38001 15.6668 6.00001V10C15.6668 13.62 14.1202 15.1667 10.5002 15.1667ZM6.50016 1.83334C3.42683 1.83334 2.3335 2.92668 2.3335 6.00001V10C2.3335 13.0733 3.42683 14.1667 6.50016 14.1667H10.5002C13.5735 14.1667 14.6668 13.0733 14.6668 10V6.00001C14.6668 2.92668 13.5735 1.83334 10.5002 1.83334H6.50016Z" fill="white"/>
</svg>
