<svg width="17" height="16" viewBox="0 0 17 16" fill="none" xmlns="http://www.w3.org/2000/svg">
<path d="M10.5002 15.1667H6.50016C2.88016 15.1667 1.3335 13.62 1.3335 10V6.00004C1.3335 2.38004 2.88016 0.833374 6.50016 0.833374H10.5002C14.1202 0.833374 15.6668 2.38004 15.6668 6.00004V10C15.6668 13.62 14.1202 15.1667 10.5002 15.1667ZM6.50016 1.83337C3.42683 1.83337 2.3335 2.92671 2.3335 6.00004V10C2.3335 13.0734 3.42683 14.1667 6.50016 14.1667H10.5002C13.5735 14.1667 14.6668 13.0734 14.6668 10V6.00004C14.6668 2.92671 13.5735 1.83337 10.5002 1.83337H6.50016Z" fill="white"/>
</svg>
