<svg width="16" height="16" viewBox="0 0 16 16" fill="none" xmlns="http://www.w3.org/2000/svg">
<path d="M12.338 4.8772L12.2982 5.10787C11.7732 7.78849 9.99146 8.7112 7.70856 8.7112H6.54722C6.4128 8.71147 6.28288 8.75968 6.18082 8.84716C6.07876 8.93464 6.01124 9.05566 5.99042 9.18846L5.39384 12.9588L5.2268 14.0247C5.21982 14.0672 5.22223 14.1106 5.23386 14.152C5.24549 14.1934 5.26606 14.2318 5.29412 14.2644C5.32218 14.297 5.35704 14.3231 5.39626 14.3408C5.43548 14.3584 5.4781 14.3673 5.52111 14.3667H7.58129C7.6994 14.3683 7.81415 14.3274 7.90466 14.2515C7.99516 14.1756 8.05542 14.0697 8.07446 13.9531V13.8497L8.45627 11.3918V11.2566C8.47358 11.1386 8.53309 11.0308 8.62377 10.9533C8.71445 10.8758 8.83015 10.8337 8.94944 10.835H9.25966C11.2562 10.835 12.8153 10.0396 13.2368 7.65327C13.3594 7.25088 13.3858 6.82535 13.3139 6.4109C13.2421 5.99645 13.074 5.60464 12.8232 5.26696C12.6832 5.11208 12.5194 4.98051 12.338 4.8772Z" fill="#179BD7"/>
<path d="M11.7893 4.66246L11.5427 4.59883L11.2802 4.5511C10.9432 4.50035 10.6028 4.47642 10.262 4.47951H7.15983C7.04191 4.48017 6.92812 4.52305 6.83911 4.6004C6.75009 4.67774 6.69173 4.78442 6.67462 4.90109L6.0144 9.07713V9.19645C6.03523 9.06365 6.10274 8.94263 6.2048 8.85515C6.30687 8.76766 6.43679 8.71946 6.57121 8.71918H7.73254C10.0154 8.71918 11.7972 7.79648 12.3222 5.11586C12.3222 5.03632 12.3222 4.95678 12.362 4.88519C12.2242 4.81225 12.0805 4.75105 11.9324 4.70224L11.7893 4.66246Z" fill="#222D65"/>
<path d="M6.66662 4.8932C6.68373 4.77653 6.74209 4.66984 6.83111 4.5925C6.92013 4.51516 7.03391 4.47227 7.15183 4.47162H10.254C10.5974 4.4681 10.9406 4.49204 11.2801 4.54321L11.5426 4.59093L11.7892 4.65457H11.9085C12.0565 4.70356 12.2002 4.76475 12.3381 4.83752C12.4387 4.44341 12.4428 4.03085 12.35 3.63482C12.2572 3.2388 12.0703 2.87098 11.8051 2.56257C11.2165 1.89441 10.1506 1.6001 8.79043 1.6001H4.81325C4.67883 1.60037 4.54891 1.64858 4.44685 1.73606C4.34479 1.82354 4.27728 1.94456 4.25645 2.07736L2.61785 12.5692C2.61107 12.6172 2.61461 12.6662 2.62823 12.7128C2.64185 12.7595 2.66524 12.8026 2.69685 12.8395C2.72845 12.8764 2.76755 12.9061 2.81153 12.9267C2.85551 12.9473 2.90338 12.9583 2.95194 12.9589H5.39392L6.00641 9.06924L6.66662 4.8932Z" fill="#253B80"/>
</svg>
