<svg width="20" height="20" viewBox="0 0 20 20" fill="none" xmlns="http://www.w3.org/2000/svg">
<path d="M17.4081 8.58613C17.5135 7.87954 17.4789 7.15617 17.3045 6.46063C17.0741 5.54179 16.5996 4.67163 15.8811 3.95308C15.1625 3.23455 14.2924 2.76008 13.3736 2.52969C12.678 2.35528 11.9546 2.32074 11.248 2.42606" stroke="#07689F" stroke-linecap="round" stroke-linejoin="round"/>
<path d="M14.2454 8.25144C14.3583 7.49452 14.1233 6.69577 13.5407 6.11311C12.958 5.53044 12.1592 5.29548 11.4023 5.40831" stroke="#07689F" stroke-linecap="round" stroke-linejoin="round"/>
<path d="M5.98913 3.66431C6.29188 3.66431 6.5708 3.82848 6.71772 4.09316L7.73709 5.92934C7.87055 6.16975 7.8768 6.46054 7.75384 6.7065L6.77184 8.6705C6.77184 8.6705 7.05643 10.1336 8.24743 11.3246C9.43843 12.5156 10.8966 12.7953 10.8966 12.7953L12.8603 11.8135C13.1065 11.6904 13.3975 11.6968 13.638 11.8305L15.4793 12.8542C15.7438 13.0012 15.9078 13.28 15.9078 13.5825V15.6965C15.9078 16.773 14.9078 17.5506 13.8878 17.2064C11.7928 16.4995 8.54084 15.1536 6.47968 13.0924C4.41847 11.0312 3.07255 7.77925 2.36566 5.68429C2.02148 4.66425 2.79902 3.66431 3.87554 3.66431H5.98913Z" stroke="#07689F" stroke-linejoin="round"/>
</svg>
