<svg width="24" height="24" viewBox="0 0 24 24" fill="none" xmlns="http://www.w3.org/2000/svg">
<path d="M2 2H22" stroke="#043E5F" stroke-linecap="round" stroke-linejoin="round"/>
<path d="M19 2H5C4.44772 2 4 2.44772 4 3V21C4 21.5523 4.44772 22 5 22H19C19.5523 22 20 21.5523 20 21V3C20 2.44772 19.5523 2 19 2Z" stroke="#043E5F" stroke-linejoin="round"/>
<path d="M10 16H14V22H10V16Z" stroke="#043E5F" stroke-linecap="round" stroke-linejoin="round"/>
<path d="M7.5 6H8.5" stroke="#043E5F" stroke-linecap="round"/>
<path d="M7.5 9H8.5" stroke="#043E5F" stroke-linecap="round"/>
<path d="M11.5 6H12.5" stroke="#043E5F" stroke-linecap="round"/>
<path d="M11.5 9H12.5" stroke="#043E5F" stroke-linecap="round"/>
<path d="M15.5 6H16.5" stroke="#043E5F" stroke-linecap="round"/>
<path d="M15.5 9H16.5" stroke="#043E5F" stroke-linecap="round"/>
<path d="M2 22H22" stroke="#043E5F" stroke-linecap="round" stroke-linejoin="round"/>
<path d="M13.9998 16H14.9998C15.276 16 15.5047 15.774 15.452 15.5029C15.1757 14.0827 13.7353 13 11.9998 13C10.2644 13 8.82399 14.0827 8.54764 15.5029C8.49494 15.774 8.72369 16 8.99984 16H9.99984" stroke="#043E5F" stroke-linecap="round" stroke-linejoin="round"/>
</svg>
