<svg width="21" height="20" viewBox="0 0 21 20" fill="none" xmlns="http://www.w3.org/2000/svg">
<path d="M10.5003 18.3334C12.8015 18.3334 14.8848 17.4007 16.3929 15.8926C17.9009 14.3846 18.8337 12.3012 18.8337 10.0001C18.8337 7.69892 17.9009 5.61558 16.3929 4.10752C14.8848 2.59949 12.8015 1.66675 10.5003 1.66675C8.19916 1.66675 6.11583 2.59949 4.60777 4.10752C3.09973 5.61558 2.16699 7.69892 2.16699 10.0001C2.16699 12.3012 3.09973 14.3846 4.60777 15.8926C6.11583 17.4007 8.19916 18.3334 10.5003 18.3334Z" stroke="#043E5F" stroke-width="2" stroke-linejoin="round"/>
<path d="M10.5 11.9269V10.2603C11.8807 10.2603 13 9.14096 13 7.76025C13 6.37955 11.8807 5.26025 10.5 5.26025C9.11929 5.26025 8 6.37955 8 7.76025" stroke="#043E5F" stroke-width="2" stroke-linecap="round" stroke-linejoin="round"/>
<path fill-rule="evenodd" clip-rule="evenodd" d="M10.4997 15.6771C11.075 15.6771 11.5413 15.2107 11.5413 14.6354C11.5413 14.0601 11.075 13.5938 10.4997 13.5938C9.92438 13.5938 9.45801 14.0601 9.45801 14.6354C9.45801 15.2107 9.92438 15.6771 10.4997 15.6771Z" fill="#043E5F"/>
</svg>
