<svg width="17" height="16" viewBox="0 0 17 16" fill="none" xmlns="http://www.w3.org/2000/svg">
<path d="M10.4997 15.1667H6.49967C2.87967 15.1667 1.33301 13.62 1.33301 10V6.00004C1.33301 2.38004 2.87967 0.833374 6.49967 0.833374H10.4997C14.1197 0.833374 15.6663 2.38004 15.6663 6.00004V10C15.6663 13.62 14.1197 15.1667 10.4997 15.1667ZM6.49967 1.83337C3.42634 1.83337 2.33301 2.92671 2.33301 6.00004V10C2.33301 13.0734 3.42634 14.1667 6.49967 14.1667H10.4997C13.573 14.1667 14.6663 13.0734 14.6663 10V6.00004C14.6663 2.92671 13.573 1.83337 10.4997 1.83337H6.49967Z" fill="white"/>
</svg>
